<svg xmlns="http://www.w3.org/2000/svg" xmlns:xlink="http://www.w3.org/1999/xlink" width="100" height="100" viewBox="0 0 100 100"><rect width="100%" height="100%" fill="#FFFFFF"></rect><g transform="translate(50 50) scale(0.69 0.69) rotate(0) translate(-50 -50)" style="fill:#E60000"><svg fill="#E60000" xmlns="http://www.w3.org/2000/svg" xmlns:xlink="http://www.w3.org/1999/xlink" version="1.1" x="0px" y="0px" viewBox="0 0 100 100" style="enable-background:new 0 0 100 100;" xml:space="preserve"><g><polygon points="52.5,51.4 47.5,51.4 50,55.7  "></polygon><path d="M51.9,29c1.5-6.1,7-10.6,13.5-10.6l1.4,0l-0.1-1.1c-0.1-1.2-0.6-3-2.5-4.8l-0.4-0.3l-0.5,0.1c-8.5,1.5-14.8,8.4-15.7,16.8   c-19.3,1-33.1,14.3-33.1,32.4c0,9.8,4.1,19.2,11.3,25.9l0.6,0.5h47.1l0.6-0.5c7.2-6.7,11.3-16.1,11.3-25.9   C85.4,43.2,71.4,29.8,51.9,29z M44.9,49.9c0.2-0.3,0.5-0.5,0.9-0.5h8.5c0.4,0,0.7,0.2,0.9,0.5s0.2,0.7,0,1l-4.2,7.3   c-0.2,0.3-0.5,0.5-0.9,0.5s-0.7-0.2-0.9-0.5l-4.2-7.3C44.7,50.6,44.7,50.2,44.9,49.9z M81.4,62.3c-0.1,0-0.2,0.1-0.3,0.1H78v3.8   c0,0.6-0.4,1-1,1s-1-0.4-1-1v-3.8h-6v3.8c0,0.6-0.4,1-1,1s-1-0.4-1-1v-3.8h-7v3.8c0,0.6-0.4,1-1,1s-1-0.4-1-1v-3.8h-8v7.1   c0,0.6-0.4,1-1,1s-1-0.4-1-1v-7.1h-8v3.8c0,0.6-0.4,1-1,1s-1-0.4-1-1v-3.8h-7v3.8c0,0.6-0.4,1-1,1s-1-0.4-1-1v-3.8h-6v3.8   c0,0.6-0.4,1-1,1s-1-0.4-1-1v-3.8h-3.1c-0.1,0-0.2,0-0.3-0.1c-0.4-0.1-0.7-0.5-0.7-0.9c0-0.4,0.3-0.8,0.7-0.9   c0.1,0,0.2-0.1,0.3-0.1h62.2c0.1,0,0.2,0,0.3,0.1c0.4,0.1,0.7,0.5,0.7,0.9C82.1,61.8,81.8,62.2,81.4,62.3z"></path></g></svg></g></svg>